/* XPM */
static char * main32_xpm[] = {
"32 32 1006 2",
"  	c #493C33",
". 	c #5A5247",
"+ 	c #5D594E",
"@ 	c #414537",
"# 	c #5B6658",
"$ 	c #2D3B2C",
"% 	c #48584B",
"& 	c #3E4C3F",
"* 	c #4B554C",
"= 	c #535851",
"- 	c #4A4A48",
"; 	c #52514F",
"> 	c #5B595A",
", 	c #656565",
"' 	c #585858",
") 	c #2E3233",
"! 	c #3D4246",
"~ 	c #4E5357",
"{ 	c #52555A",
"] 	c #4A4B4F",
"^ 	c #504F55",
"/ 	c #63636B",
"( 	c #696B77",
"_ 	c #5C6270",
": 	c #5D6476",
"< 	c #424B5C",
"[ 	c #303749",
"} 	c #565A66",
"| 	c #414048",
"1 	c #3D3739",
"2 	c #D2C4C3",
"3 	c #FFFBF6",
"4 	c #483F38",
"5 	c #302921",
"6 	c #414137",
"7 	c #4B5145",
"8 	c #3B473B",
"9 	c #3F4F42",
"0 	c #1A2A1F",
"a 	c #2D3A30",
"b 	c #232D25",
"c 	c #373C36",
"d 	c #555553",
"e 	c #575556",
"f 	c #5A585B",
"g 	c #3F3F41",
"h 	c #707173",
"i 	c #353A3D",
"j 	c #484F55",
"k 	c #474E54",
"l 	c #3D4045",
"m 	c #2F3035",
"n 	c #333439",
"o 	c #47474F",
"p 	c #51535F",
"q 	c #4C5260",
"r 	c #363D4F",
"s 	c #323B4C",
"t 	c #404757",
"u 	c #444A56",
"v 	c #42424A",
"w 	c #2F2A2E",
"x 	c #D8CECD",
"y 	c #FFFCF8",
"z 	c #2D2926",
"A 	c #575652",
"B 	c #474C46",
"C 	c #252F27",
"D 	c #48554E",
"E 	c #3C4B44",
"F 	c #2A3934",
"G 	c #2B3632",
"H 	c #424846",
"I 	c #464847",
"J 	c #444245",
"K 	c #413F42",
"L 	c #4F4E53",
"M 	c #4F5054",
"N 	c #83888B",
"O 	c #11191C",
"P 	c #4F585F",
"Q 	c #464D57",
"R 	c #3A3E47",
"S 	c #34373E",
"T 	c #3C3C44",
"U 	c #464650",
"V 	c #464854",
"W 	c #3F4553",
"X 	c #303747",
"Y 	c #262F3E",
"Z 	c #414A59",
"` 	c #313946",
" .	c #494D56",
"..	c #232429",
"+.	c #DAD8DB",
"@.	c #FFFEFD",
"#.	c #474B4A",
"$.	c #1C2220",
"%.	c #424B48",
"&.	c #293531",
"*.	c #22312E",
"=.	c #182724",
"-.	c #182223",
";.	c #44494C",
">.	c #3B3C40",
",.	c #4B494E",
"'.	c #443D44",
").	c #4C474E",
"!.	c #323137",
"~.	c #404348",
"{.	c #737B7E",
"].	c #586166",
"^.	c #555E67",
"/.	c #484E5A",
"(.	c #414550",
"_.	c #474B54",
":.	c #555861",
"<.	c #595C65",
"[.	c #555763",
"}.	c #4F535E",
"|.	c #4B535E",
"1.	c #38404D",
"2.	c #4C5662",
"3.	c #777E88",
"4.	c #E5E8ED",
"5.	c #FCFFFF",
"6.	c #293334",
"7.	c #8F9B9B",
"8.	c #212F2F",
"9.	c #283636",
"0.	c #1E2C2D",
"a.	c #283335",
"b.	c #34393D",
"c.	c #424348",
"d.	c #39323A",
"e.	c #3C303A",
"f.	c #463A44",
"g.	c #4C424D",
"h.	c #36303A",
"i.	c #1F1F27",
"j.	c #32393F",
"k.	c #778087",
"l.	c #565C68",
"m.	c #464C5A",
"n.	c #3E424E",
"o.	c #474B56",
"p.	c #585B64",
"q.	c #60636C",
"r.	c #62656C",
"s.	c #61666C",
"t.	c #373B44",
"u.	c #3E454D",
"v.	c #4E5760",
"w.	c #59626B",
"x.	c #7F8992",
"y.	c #626C75",
"z.	c #DFE8F1",
"A.	c #E8F1F8",
"B.	c #5A6869",
"C.	c #5F6D6D",
"D.	c #243233",
"E.	c #465455",
"F.	c #2C3739",
"G.	c #323A3D",
"H.	c #2B2A30",
"I.	c #403941",
"J.	c #41313C",
"K.	c #3D2935",
"L.	c #4F3B47",
"M.	c #200E1A",
"N.	c #453B44",
"O.	c #2D2A31",
"P.	c #191C21",
"Q.	c #2A2F35",
"R.	c #454955",
"S.	c #414352",
"T.	c #434552",
"U.	c #50525E",
"V.	c #5D6069",
"W.	c #61646B",
"X.	c #5F6064",
"Y.	c #5B5C60",
"Z.	c #303437",
"`.	c #5A5E61",
" +	c #5C6165",
".+	c #545C5F",
"++	c #687176",
"@+	c #6D787E",
"#+	c #EAF7FF",
"$+	c #F5FFFF",
"%+	c #273535",
"&+	c #71807D",
"*+	c #1B2929",
"=+	c #1C2625",
"-+	c #3B4141",
";+	c #2F2F31",
">+	c #2D2429",
",+	c #26151D",
"'+	c #341A25",
")+	c #573945",
"!+	c #70525E",
"~+	c #2B111C",
"{+	c #37262E",
"]+	c #342B30",
"^+	c #3C3A3D",
"/+	c #2B2C30",
"(+	c #3C3944",
"_+	c #464250",
":+	c #54525F",
"<+	c #605E69",
"[+	c #67676F",
"}+	c #66676B",
"|+	c #5D5D5D",
"1+	c #535351",
"2+	c #353430",
"3+	c #51524C",
"4+	c #484944",
"5+	c #3D3F3C",
"6+	c #4B5151",
"7+	c #444E50",
"8+	c #CBD6DC",
"9+	c #ECF9FF",
"0+	c #4D5852",
"a+	c #7C8781",
"b+	c #434C47",
"c+	c #636965",
"d+	c #706866",
"e+	c #412E30",
"f+	c #6B5055",
"g+	c #725158",
"h+	c #7F5A62",
"i+	c #755058",
"j+	c #65444B",
"k+	c #351C20",
"l+	c #281819",
"m+	c #463E3C",
"n+	c #4C4648",
"o+	c #483E46",
"p+	c #544A55",
"q+	c #5A545E",
"r+	c #5B5861",
"s+	c #5D5E63",
"t+	c #636468",
"u+	c #646462",
"v+	c #606058",
"w+	c #6B695D",
"x+	c #6A665A",
"y+	c #666256",
"z+	c #726F66",
"A+	c #8A8B85",
"B+	c #545857",
"C+	c #CBD3D6",
"D+	c #F8FFFF",
"E+	c #7B8173",
"F+	c #898D7F",
"G+	c #87897C",
"H+	c #8A8A7E",
"I+	c #878076",
"J+	c #90817A",
"K+	c #735A56",
"L+	c #8E6C6B",
"M+	c #7C5256",
"N+	c #78494F",
"O+	c #7E4F55",
"P+	c #976D71",
"Q+	c #472526",
"R+	c #2A100F",
"S+	c #72605C",
"T+	c #A89996",
"U+	c #FFFAFD",
"V+	c #FFF0F7",
"W+	c #FFFBFF",
"X+	c #DCD9E0",
"Y+	c #B6B7BC",
"Z+	c #6B6F70",
"`+	c #6F716C",
" @	c #77776D",
".@	c #6B6857",
"+@	c #726B58",
"@@	c #6B6350",
"#@	c #605746",
"$@	c #7F776C",
"%@	c #605B55",
"&@	c #C0C0BE",
"*@	c #FEFFFF",
"=@	c #787763",
"-@	c #7B7865",
";@	c #74715E",
">@	c #706957",
",@	c #908474",
"'@	c #7F6D5F",
")@	c #8C7065",
"!@	c #8E6963",
"~@	c #936663",
"{@	c #A16F70",
"]@	c #9F6D6E",
"^@	c #B48484",
"/@	c #8F6765",
"(@	c #866560",
"_@	c #664D46",
":@	c #E2CDC8",
"<@	c #F0DADC",
"[@	c #FEEDF3",
"}@	c #BFB5BD",
"|@	c #DBDAE0",
"1@	c #F1F8FE",
"2@	c #E6F0F2",
"3@	c #B1BAB7",
"4@	c #7B8177",
"5@	c #868573",
"6@	c #8C8670",
"7@	c #9B8F77",
"8@	c #91826B",
"9@	c #918473",
"0@	c #94887C",
"a@	c #CCC5BF",
"b@	c #EFEAE6",
"c@	c #B2A88D",
"d@	c #C7BDA2",
"e@	c #BFB59C",
"f@	c #B1A78E",
"g@	c #AE9F8A",
"h@	c #846F5C",
"i@	c #A28575",
"j@	c #AA8479",
"k@	c #A67A71",
"l@	c #A2716C",
"m@	c #B27F7C",
"n@	c #956460",
"o@	c #9F746E",
"p@	c #9B766E",
"q@	c #4C2E26",
"r@	c #FFF7F0",
"s@	c #E7CFCF",
"t@	c #B09DA1",
"u@	c #C0B9C1",
"v@	c #9B9FA8",
"w@	c #C2D0D9",
"x@	c #E9FCFF",
"y@	c #F1FFFF",
"z@	c #92A19A",
"A@	c #828677",
"B@	c #AFAA94",
"C@	c #87795F",
"D@	c #B6A58B",
"E@	c #97826D",
"F@	c #BAA796",
"G@	c #DBCAC0",
"H@	c #FFFBF4",
"I@	c #5E4F30",
"J@	c #564728",
"K@	c #382A0D",
"L@	c #514326",
"M@	c #5E4E34",
"N@	c #806C54",
"O@	c #927762",
"P@	c #A78675",
"Q@	c #693F33",
"R@	c #73443C",
"S@	c #6A3934",
"T@	c #865550",
"U@	c #A87B76",
"V@	c #5B342D",
"W@	c #7E5B55",
"X@	c #D3B6B0",
"Y@	c #D8C0C0",
"Z@	c #FFFAFF",
"`@	c #E7E5F0",
" #	c #9AA6B4",
".#	c #D6F0FF",
"+#	c #5C7C89",
"@#	c #A6C4CC",
"##	c #E8FFFF",
"$#	c #DEECDF",
"%#	c #F7F9E4",
"&#	c #91856B",
"*#	c #D4C0A5",
"=#	c #E3CAB4",
"-#	c #CBB1A0",
";#	c #DFC9BC",
">#	c #FFF3E8",
",#	c #574424",
"'#	c #514120",
")#	c #78694A",
"!#	c #9B8E6E",
"~#	c #9D9274",
"{#	c #B7A98C",
"]#	c #917D65",
"^#	c #9F8672",
"/#	c #F1D0C1",
"(#	c #A57D73",
"_#	c #855A53",
":#	c #91645F",
"<#	c #774B48",
"[#	c #542D28",
"}#	c #B18E8A",
"|#	c #BFA19F",
"1#	c #CCB8BA",
"2#	c #E0D6DE",
"3#	c #F5FDFF",
"4#	c #BED5E7",
"5#	c #92BBD1",
"6#	c #C7F7FF",
"7#	c #98C7D7",
"8#	c #60898F",
"9#	c #6F8884",
"0#	c #879282",
"a#	c #A9A38D",
"b#	c #BCAA92",
"c#	c #C8AF99",
"d#	c #846956",
"e#	c #E0C4B8",
"f#	c #FFF8ED",
"g#	c #564221",
"h#	c #453211",
"i#	c #918261",
"j#	c #7D7350",
"k#	c #7C7352",
"l#	c #82795A",
"m#	c #80745A",
"n#	c #AE9C86",
"o#	c #C0A695",
"p#	c #A28275",
"q#	c #87625A",
"r#	c #B08984",
"s#	c #5B3331",
"t#	c #6C4645",
"u#	c #C9A7A6",
"v#	c #C4A7A9",
"w#	c #F0E0E3",
"x#	c #F2EFF8",
"y#	c #B8C7DA",
"z#	c #A4C6DF",
"A#	c #7DB0CF",
"B#	c #94D1EE",
"C#	c #93CFE7",
"D#	c #B2E7F5",
"E#	c #BBDEE0",
"F#	c #87988E",
"G#	c #C1C0AE",
"H#	c #D2C3AE",
"I#	c #AB927E",
"J#	c #C7AA9A",
"K#	c #F7D9CE",
"L#	c #FFF0E6",
"M#	c #846D4B",
"N#	c #5A4726",
"O#	c #897A59",
"P#	c #867E5A",
"Q#	c #95916E",
"R#	c #93906F",
"S#	c #807B5E",
"T#	c #817660",
"U#	c #A59482",
"V#	c #FFE9DD",
"W#	c #81625D",
"X#	c #AE8B89",
"Y#	c #785454",
"Z#	c #634142",
"`#	c #D0B0B3",
" $	c #BCA3A7",
".$	c #E2D5DC",
"+$	c #DDE1ED",
"@$	c #DBF1FF",
"#$	c #376380",
"$$	c #7BBADD",
"%$	c #74BDE0",
"&$	c #367F9F",
"*$	c #67A8BC",
"=$	c #ACDBE3",
"-$	c #86A19C",
";$	c #7E8274",
">$	c #9C917F",
",$	c #5E4735",
"'$	c #957868",
")$	c #D6B6AB",
"!$	c #FFEFE6",
"~$	c #6D5332",
"{$	c #573F1D",
"]$	c #614E2D",
"^$	c #867758",
"/$	c #7C7354",
"($	c #8B8468",
"_$	c #79715A",
":$	c #786D59",
"<$	c #AD9B8D",
"[$	c #F3DCD4",
"}$	c #C6A9A5",
"|$	c #856664",
"1$	c #BD9B9C",
"2$	c #CEACAD",
"3$	c #79595A",
"4$	c #A68C8F",
"5$	c #F6E5EB",
"6$	c #C9C9D5",
"7$	c #EEFFFF",
"8$	c #295270",
"9$	c #5594B7",
"0$	c #539CBF",
"a$	c #5CA3C1",
"b$	c #438093",
"c$	c #81AAB0",
"d$	c #7D908A",
"e$	c #373526",
"f$	c #473622",
"g$	c #7A604F",
"h$	c #46291B",
"i$	c #CDAFA5",
"j$	c #FFF7F1",
"k$	c #997656",
"l$	c #B39271",
"m$	c #B29376",
"n$	c #A0856A",
"o$	c #9F8670",
"p$	c #97806E",
"q$	c #8E786A",
"r$	c #947E73",
"s$	c #E1C8C3",
"t$	c #FDE1DE",
"u$	c #E2C4C2",
"v$	c #654644",
"w$	c #B18F8E",
"x$	c #B49290",
"y$	c #C5A2A0",
"z$	c #E1BFBE",
"A$	c #E1C4C6",
"B$	c #E4D5DC",
"C$	c #E3ECFD",
"D$	c #99B9D0",
"E$	c #427894",
"F$	c #5C99B5",
"G$	c #86C0D4",
"H$	c #709CA5",
"I$	c #6B807B",
"J$	c #32311F",
"K$	c #372109",
"L$	c #321000",
"M$	c #381501",
"N$	c #210100",
"O$	c #B29994",
"P$	c #FFFAF6",
"Q$	c #E8C4A4",
"R$	c #E3BEA1",
"S$	c #D0AC92",
"T$	c #C9A690",
"U$	c #D9BAA8",
"V$	c #E6C8BD",
"W$	c #DEC1BB",
"X$	c #D1B5B1",
"Y$	c #FFF4F3",
"Z$	c #F3D9DA",
"`$	c #DABDBF",
" %	c #9A7C7C",
".%	c #917270",
"+%	c #836461",
"@%	c #91706B",
"#%	c #9D7B79",
"$%	c #FBDDDD",
"%%	c #FFF1F7",
"&%	c #E2E9F9",
"*%	c #88A4BA",
"=%	c #4F819A",
"-%	c #5890A9",
";%	c #6596A7",
">%	c #83A4A9",
",%	c #A9B0A8",
"'%	c #BCAD98",
")%	c #C29E84",
"!%	c #FFDBC0",
"~%	c #EFC6B2",
"{%	c #FFDED2",
"]%	c #9A827E",
"^%	c #FFF8F8",
"/%	c #D6B395",
"(%	c #D2B094",
"_%	c #D6B69D",
":%	c #DDBEAA",
"<%	c #DFC2B4",
"[%	c #D9BDB2",
"}%	c #BBA29D",
"|%	c #957D7B",
"1%	c #FFE8EB",
"2%	c #FFF3F6",
"3%	c #C2A8AB",
"4%	c #EAD0D1",
"5%	c #BDA0A2",
"6%	c #775B5A",
"7%	c #A68886",
"8%	c #846B67",
"9%	c #FFEFF0",
"0%	c #DED9DF",
"a%	c #DAEAF9",
"b%	c #8BAEC4",
"c%	c #457893",
"d%	c #5B93AC",
"e%	c #72A1B3",
"f%	c #94B2BA",
"g%	c #ABADA8",
"h%	c #C3B0A1",
"i%	c #AC8671",
"j%	c #D6A891",
"k%	c #E5BAA9",
"l%	c #D6B1A8",
"m%	c #AA908F",
"n%	c #FFF9FB",
"o%	c #ECCAAF",
"p%	c #E5C5AC",
"q%	c #EBCCB7",
"r%	c #E1C4B2",
"s%	c #CEB2A6",
"t%	c #D7BCB3",
"u%	c #EAD1CD",
"v%	c #E8D0D0",
"w%	c #FAE4E6",
"x%	c #FCE6E9",
"y%	c #DAC4C6",
"z%	c #D2BCBE",
"A%	c #B49B9E",
"B%	c #998181",
"C%	c #563C3B",
"D%	c #4F3B3A",
"E%	c #FFFCFB",
"F%	c #D7DAE1",
"G%	c #E4FAFF",
"H%	c #90B6CB",
"I%	c #396C87",
"J%	c #5086A0",
"K%	c #648FA2",
"L%	c #859DA7",
"M%	c #A19D9A",
"N%	c #9D8277",
"O%	c #A57A67",
"P%	c #E2AF9C",
"Q%	c #D3A596",
"R%	c #B38D84",
"S%	c #D0B6B5",
"T%	c #FFF8FA",
"U%	c #B8987F",
"V%	c #B6967F",
"W%	c #C0A18D",
"X%	c #B99C8C",
"Y%	c #A2867A",
"Z%	c #A28780",
"`%	c #AB928E",
" &	c #A48C8C",
".&	c #FBE5E7",
"+&	c #F1DDDF",
"@&	c #C4B0B2",
"#&	c #E2CECF",
"$&	c #DAC6C7",
"%&	c #E3CFCE",
"&&	c #826D6C",
"*&	c #584848",
"=&	c #F1EFF0",
"-&	c #EEF9FF",
";&	c #E2FCFF",
">&	c #789EB3",
",&	c #44768F",
"'&	c #528299",
")&	c #4C6F83",
"!&	c #95A3AE",
"~&	c #BEB2B2",
"{&	c #816057",
"]&	c #DCAB9C",
"^&	c #E4AF9D",
"/&	c #EABAAC",
"(&	c #AA847B",
"_&	c #C7ADAC",
":&	c #FEEAEB",
"<&	c #CDAA94",
"[&	c #C3A38C",
"}&	c #C7A693",
"|&	c #D1B1A2",
"1&	c #D0B2A7",
"2&	c #C3A89F",
"3&	c #A68A86",
"4&	c #836B69",
"5&	c #FFF5F5",
"6&	c #FFF5F7",
"7&	c #CBB7B8",
"8&	c #301C1D",
"9&	c #9A8685",
"0&	c #9E8A89",
"a&	c #201211",
"b&	c #F2F0F1",
"c&	c #EAF5F9",
"d&	c #DEF6FF",
"e&	c #83A4B7",
"f&	c #4E778D",
"g&	c #60849C",
"h&	c #72899B",
"i&	c #B0B2BE",
"j&	c #AF999B",
"k&	c #AD857D",
"l&	c #E1AC9C",
"m&	c #C48C7B",
"n&	c #EEBEB0",
"o&	c #6E483D",
"p&	c #C8AFAA",
"q&	c #FCD8C0",
"r&	c #DFBBA5",
"s&	c #B38E7B",
"t&	c #977363",
"u&	c #916F63",
"v&	c #86685E",
"w&	c #775951",
"x&	c #6E524E",
"y&	c #FFF7F4",
"z&	c #E6CDC9",
"A&	c #C9B1AD",
"B&	c #B7A29D",
"C&	c #CEB9B4",
"D&	c #B19D96",
"E&	c #756661",
"F&	c #FFFDFB",
"G&	c #E5E9EC",
"H&	c #DDEAF3",
"I&	c #A5B8C7",
"J&	c #60798D",
"K&	c #677C8F",
"L&	c #8E95A5",
"M&	c #B2A6B0",
"N&	c #543533",
"O&	c #D4A59B",
"P&	c #B77E6D",
"Q&	c #E7AE9B",
"R&	c #DBAE9B",
"S&	c #61402F",
"T&	c #AC998B",
"U&	c #FFF7EB",
"V&	c #9C745B",
"W&	c #BB957E",
"X&	c #D2AC97",
"Y&	c #E2BDAA",
"Z&	c #F1CCBC",
"`&	c #E7C3B5",
" *	c #DAB8AE",
".*	c #E6C5BC",
"+*	c #FFECE4",
"@*	c #FEE1D9",
"#*	c #D9BEB5",
"$*	c #A38B81",
"%*	c #8F766F",
"&*	c #6A5449",
"**	c #362015",
"=*	c #49352C",
"-*	c #E0CECC",
";*	c #E0D6D7",
">*	c #C1C0C8",
",*	c #9FA3AF",
"'*	c #9097A7",
")*	c #7F8291",
"!*	c #928893",
"~*	c #CFB8BE",
"{*	c #855C58",
"]*	c #D5A194",
"^*	c #D39886",
"/*	c #BB856D",
"(*	c #D4AA92",
"_*	c #6B4F39",
":*	c #BBAE9B",
"<*	c #FFFFED",
"[*	c #FAD0B7",
"}*	c #F2CAB0",
"|*	c #E5BDA4",
"1*	c #E0B7A1",
"2*	c #D6AD99",
"3*	c #B28C79",
"4*	c #916C5C",
"5*	c #8A6658",
"6*	c #FFF5E7",
"7*	c #FFF6EA",
"8*	c #DDBDB0",
"9*	c #886B5D",
"0*	c #A88C80",
"a*	c #6B4F41",
"b*	c #836759",
"c*	c #795D52",
"d*	c #BE9F9C",
"e*	c #FFE7E9",
"f*	c #FFF9FD",
"g*	c #665960",
"h*	c #80747E",
"i*	c #867680",
"j*	c #C6ADB3",
"k*	c #6F4B4B",
"l*	c #AB7A73",
"m*	c #CF9788",
"n*	c #D19982",
"o*	c #FDCBB0",
"p*	c #B18E72",
"q*	c #665134",
"r*	c #B3AD93",
"s*	c #FBFEE3",
"t*	c #AA8366",
"u*	c #C29B7E",
"v*	c #DDB59B",
"w*	c #F3C9B0",
"x*	c #FAD0B8",
"y*	c #F1C8B2",
"z*	c #F5CCBA",
"A*	c #FFE1D0",
"B*	c #7E5746",
"C*	c #987363",
"D*	c #957161",
"E*	c #9D7C6B",
"F*	c #5F3F30",
"G*	c #755546",
"H*	c #A28273",
"I*	c #836155",
"J*	c #FFDEDA",
"K*	c #FDD5D5",
"L*	c #FFF3F4",
"M*	c #3D2024",
"N*	c #E4CBCF",
"O*	c #FFE6E9",
"P*	c #916F6E",
"Q*	c #CBA09A",
"R*	c #B37F72",
"S*	c #A9725E",
"T*	c #DBA58D",
"U*	c #D0A386",
"V*	c #BB9C7F",
"W*	c #706142",
"X*	c #BFBEA0",
"Y*	c #FEFFE6",
"Z*	c #F7D2B5",
"`*	c #F2CDB0",
" =	c #E8C3A8",
".=	c #E7BFA5",
"+=	c #E0B89F",
"@=	c #C19882",
"#=	c #9E7561",
"$=	c #926957",
"%=	c #D4AB99",
"&=	c #926B5A",
"*=	c #C59E8D",
"==	c #997462",
"-=	c #886454",
";=	c #9E7D6C",
">=	c #967564",
",=	c #866053",
"'=	c #D5A6A0",
")=	c #D2A09F",
"!=	c #DEB2B1",
"~=	c #5A3433",
"{=	c #886665",
"]=	c #856260",
"^=	c #89625B",
"/=	c #8C6055",
"(=	c #A06D5C",
"_=	c #AB7762",
":=	c #9E6F55",
"<=	c #D0A98C",
"[=	c #A08769",
"}=	c #877C5E",
"|=	c #BBBE9F",
"1=	c #F6FFE0",
"2=	c #BD9E82",
"3=	c #CFB094",
"4=	c #DFBDA2",
"5=	c #E3C1A8",
"6=	c #DFBBA3",
"7=	c #CEA893",
"8=	c #C7A18C",
"9=	c #D5AC9A",
"0=	c #BF9887",
"a=	c #A57E6D",
"b=	c #552E1F",
"c=	c #8F6A5A",
"d=	c #A58171",
"e=	c #967566",
"f=	c #8B655A",
"g=	c #B68580",
"h=	c #B17E7B",
"i=	c #C29590",
"j=	c #734A46",
"k=	c #7E5953",
"l=	c #7A584F",
"m=	c #664035",
"n=	c #A77D6F",
"o=	c #C39683",
"p=	c #A37460",
"q=	c #D2A890",
"r=	c #C4A289",
"s=	c #A58D73",
"t=	c #AEA489",
"u=	c #AEB196",
"v=	c #FCFFEA",
"w=	c #BFA991",
"x=	c #D1B9A1",
"y=	c #D9BFA8",
"z=	c #D8BCA7",
"A=	c #D3B4A0",
"B=	c #C6A390",
"C=	c #D4B19E",
"D=	c #7D5848",
"E=	c #9A7668",
"F=	c #906C60",
"G=	c #C09E92",
"H=	c #C3A398",
"I=	c #96786D",
"J=	c #AC8E83",
"K=	c #CAA89E",
"L=	c #DEB1AC",
"M=	c #A87874",
"N=	c #CCA39D",
"O=	c #A48279",
"P=	c #BEA096",
"Q=	c #8E7066",
"R=	c #6E5143",
"S=	c #F1D0BF",
"T=	c #C19C8A",
"U=	c #D5AE9D",
"V=	c #C7A290",
"W=	c #CCAD9B",
"X=	c #7C6754",
"Y=	c #847967",
"Z=	c #B6B5A1",
"`=	c #FFFFEF",
" -	c #E4D5C2",
".-	c #DECDB9",
"+-	c #CCBAA6",
"@-	c #C1AC99",
"#-	c #C1A796",
"$-	c #B39887",
"%-	c #9F8272",
"&-	c #9A7A6B",
"*-	c #BA9A8D",
"=-	c #4A281E",
"--	c #CCABA2",
";-	c #B6988E",
">-	c #987A72",
",-	c #B1948C",
"'-	c #A88D84",
")-	c #65473F",
"!-	c #D0A9A4",
"~-	c #A47D78",
"{-	c #C2A19A",
"]-	c #C9ADA2",
"^-	c #B1998D",
"/-	c #513B2E",
"(-	c #CCB5A5",
"_-	c #D7BDAE",
":-	c #CCAC9F",
"<-	c #C9A99C",
"[-	c #BB9F93",
"}-	c #352116",
"|-	c #84786C",
"1-	c #898278",
"2-	c #FFFFF6",
"3-	c #DCD5C5",
"4-	c #EEE5D4",
"5-	c #F3E7D7",
"6-	c #E8DBCB",
"7-	c #E1CFC1",
"8-	c #D9C6B8",
"9-	c #E0C8BC",
"0-	c #F2D7CC",
"a-	c #AB8E86",
"b-	c #FDE0D8",
"c-	c #E7CAC4",
"d-	c #E5CAC3",
"e-	c #D7BBB7",
"f-	c #E2C9C5",
"g-	c #B59D99",
"h-	c #EDD4D0",
"i-	c #D3B6B2",
"j-	c #D5BCB5",
"k-	c #C3B1A5",
"l-	c #D8CABD",
"m-	c #BFB2A2",
"n-	c #F7E7D8",
"o-	c #EBDACA",
"p-	c #DBC3B7",
"q-	c #EED3C8",
"r-	c #EED1CB",
"s-	c #D0B4B0",
"t-	c #A18C89",
"u-	c #9B8C89",
"v-	c #DBD1D0",
"w-	c #FFFAF8",
"x-	c #FFFFF1",
"y-	c #FFFBEB",
"z-	c #FFF6E8",
"A-	c #FFFCEF",
"B-	c #FFFBEF",
"C-	c #FFF6EB",
"D-	c #FFF4ED",
"E-	c #FFF2EB",
"F-	c #FFF1ED",
"G-	c #FFF8F3",
"H-	c #FFE9E8",
"I-	c #FFF8F6",
"J-	c #FFF3F2",
"K-	c #FFF2EE",
"L-	c #FFF2E8",
"M-	c #FFFCF1",
"N-	c #FFF9EA",
"O-	c #FBEFDF",
"P-	c #FFFDED",
"Q-	c #FFF9F1",
"R-	c #FFF7F3",
"S-	c #FFF7F6",
"T-	c #FFEDEC",
"U-	c #FFFBFD",
"  . + @ # $ % & * = - ; > , ' ) ! ~ { ] ^ / ( _ : < [ } | 1 2 3 ",
"4 5 6 7 8 9 0 a b c d e f g h i j k l m n o p q r s t u v w x y ",
"z A B C D E F G H I J K L M N O P Q R S T U V W X Y Z `  ...+.@.",
"#.$.%.&.*.=.-.;.>.,.'.).!.~.{.].^./.(._.:.<.[.}.|.1.2.|.3._.4.5.",
"6.7.8.9.0.a.b.c.d.e.f.g.h.i.j.k.l.m.n.o.p.q.r.s.t.u.v.w.x.y.z.A.",
"B.C.D.E.F.G.H.I.J.K.L.M.N.O.P.Q.R.S.T.U.V.W.X.Y.Z.`. +.+++@+#+$+",
"%+&+*+=+-+;+>+,+'+)+!+~+{+]+^+/+(+_+:+<+[+}+|+1+2+3+4+5+6+7+8+9+",
"0+a+b+c+4+d+e+f+g+h+i+j+k+l+m+n+o+p+q+r+s+t+u+v+w+x+y+z+A+B+C+D+",
"E+F+G+H+I+J+K+L+M+N+O+P+Q+R+S+T+U+V+W+X+Y+Z+`+ @.@+@@@#@$@%@&@*@",
"=@-@;@>@,@'@)@!@~@{@]@^@/@(@_@:@<@[@}@|@1@2@3@4@5@6@7@8@9@0@a@b@",
"c@d@e@f@g@h@i@j@k@l@m@n@o@p@q@r@s@t@u@v@w@x@y@z@A@B@C@D@E@F@G@H@",
"I@J@K@L@M@N@O@P@Q@R@S@T@U@V@W@X@Y@Z@`@ #.#+#@###$#%#&#*#=#-#;#>#",
",#'#)#!#~#{#]#^#/#(#_#:#<#[#}#|#1#2#3#4#5#6#7#8#9#0#a#b#c#d#e#f#",
"g#h#i#j#k#l#m#n#o#p#q#r#s#t#u#v#w#x#y#z#A#B#C#D#E#F#G#H#I#J#K#L#",
"M#N#O#P#Q#R#S#T#U#V#W#X#Y#Z#`# $.$+$@$#$$$%$&$*$=$-$;$>$,$'$)$!$",
"~${$]$^$/$($_$:$<$[$}$|$1$2$3$4$5$6$7$8$9$0$a$b$c$d$e$f$g$h$i$j$",
"k$l$m$n$o$p$q$r$s$t$u$v$w$x$y$z$A$B$C$D$E$F$G$H$I$J$K$L$M$N$O$P$",
"Q$R$S$T$U$V$W$X$Y$Z$`$ %.%+%@%#%$%%%&%*%=%-%;%>%,%'%)%!%~%{%]%^%",
"/%(%_%:%<%[%}%|%1%2%3%4%5%6%7%8%9%0%a%b%c%d%e%f%g%h%i%j%k%l%m%n%",
"o%p%q%r%s%t%u%v%w%x%y%z%A%B%C%D%E%F%G%H%I%J%K%L%M%N%O%P%Q%R%S%T%",
"U%V%W%X%Y%Z%`% &.&+&@&#&$&%&&&*&=&-&;&>&,&'&)&!&~&{&]&^&/&(&_&:&",
"<&[&}&|&1&2&3&4&5&6&7&8&9&0&P$a&b&c&d&e&f&g&h&i&j&k&l&m&n&o&p&P$",
"q&r&s&t&u&v&w&x&y&z&A&B&B&C&D&E&F&G&H&I&J&K&L&M&N&O&P&Q&R&S&T&U&",
"V&W&X&Y&Z&`& *.*+*@*#*$*%*&***=*-*;*>*,*'*)*!*~*{*]*^*/*(*_*:*<*",
"[*}*|*1*2*3*4*5*6*7*8*9*0*a*b*c*d*e*f*g*h*i*j*k*l*m*n*o*p*q*r*s*",
"t*u*v*w*x*y*z*A*B*C*D*E*F*G*H*I*J*K*L*M*N*O*P*Q*R*S*T*U*V*W*X*Y*",
"Z*`* =.=+=@=#=$=%=&=*===-=;=>=,='=)=!=~={=]=^=/=(=_=:=<=[=}=|=1=",
"2=3=4=5=6=7=8=9=0=a=b=c=d=>=e=f=g=h=i=j=k=l=m=n=o=p=q=r=s=t=u=v=",
"w=x=y=z=A=}&B=C=D=E=F=G=H=I=J=K=L=M=N=O=P=Q=R=S=T=U=V=W=X=Y=Z=`=",
" -.-+-@-#-$-%-&-*-=---;->-,-'-)-!-~-{-]-^-/-(-_-X%:-<-[-}-|-1-2-",
"3-4-5-6-7-8-9-0-a-b-c-d-e-f-g-h-i-X@j-k-l-m-n-o-p-q-r-s-t-u-v-w-",
"x-x-y-z-A-B-C-C-D-E-F-G-H-I-J-I-K-G-L-M-N-`=O-P-f#Q-R-S-T-n%U-W+"};
